<?xml version="1.0" encoding="utf-8"?>
<!-- Generator: Adobe Illustrator 16.0.0, SVG Export Plug-In . SVG Version: 6.00 Build 0)  -->
<!DOCTYPE svg PUBLIC "-//W3C//DTD SVG 1.1//EN" "http://www.w3.org/Graphics/SVG/1.1/DTD/svg11.dtd">
<svg version="1.1" id="Layer_1" xmlns="http://www.w3.org/2000/svg" xmlns:xlink="http://www.w3.org/1999/xlink" x="0px" y="0px"
	 width="400px" height="400px" viewBox="100.162 -51.845 400 400" enable-background="new 100.162 -51.845 400 400"
	 xml:space="preserve">
<title></title>
<g id="github_coding_dev_developer">
	<path d="M299.094-51.834c-109.901,0.035-198.965,90.977-198.932,203.125c0.027,91.287,59.746,171.334,145.968,195.659
		c7.913,3.036,16.739-1.045,19.716-9.118c2.979-8.075-1.023-17.085-8.936-20.121c-0.866-0.332-1.759-0.586-2.669-0.752
		c-89.692-25.062-142.491-119.575-117.931-211.1C160.87,14.334,253.49-39.546,343.18-14.484
		c89.692,25.063,142.491,119.577,117.931,211.1c-13.913,51.859-50.818,94.079-99.72,114.096c0.967-20.525-0.577-41.094-4.592-61.23
		c44.877-10.16,76.396-51.36,75.158-98.251c1.104-21.384-4.528-42.569-16.074-60.451c2.142-17.742,0.038-35.749-6.123-52.484
		c-2.369-7.203-9.478-11.622-16.838-10.465c-18.463,2.574-36.105,9.41-51.585,19.994c-13.791-3.741-27.981-5.733-42.248-5.937
		c-15.511,0.418-30.922,2.673-45.921,6.716c-14.88-11.614-33.008-18.074-51.74-18.432c-6.776-0.408-13.011,3.789-15.307,10.309
		c-5.612,15.946-7.552,32.997-5.664,49.829c-10.984,18.307-16.564,39.459-16.072,60.921c1.166,46.477,32.41,86.522,76.536,98.095
		c-0.985,4.065-1.751,8.188-2.297,12.338c-15.307,0.939-24.187-8.59-35.512-23.118c-6.669-11.434-17.248-19.946-29.698-23.898
		c-8.029-1.461-15.771,3.76-17.602,11.871c-1.76,8.116,3.016,16.218,10.867,18.434c2.449,0,8.419,8.122,11.788,12.652
		c12.378,20.562,33.798,33.676,57.399,35.146c6.728-0.008,13.425-0.953,19.901-2.812l0,0c1.585-0.479,3.084-1.217,4.438-2.188l0,0
		c1.12-0.901,2.053-2.015,2.758-3.282c0.486-0.389,0.9-0.865,1.224-1.405c0.397-0.85,0.705-1.738,0.919-2.655
		c0.376-1.019,0.683-2.061,0.92-3.124l0,0c-0.051-10.378,2.363-20.616,7.041-29.835c5.495-6.556,4.742-16.416-1.684-22.022
		c-2.771-2.42-6.3-3.751-9.949-3.751c-36.801-2.118-65.771-32.84-66.434-70.447c-0.759-16.692,3.923-33.17,13.316-46.86
		c3.087-3.53,4.437-8.297,3.673-12.964c-1.76-9.547-1.76-19.347,0-28.897c10.019,2.166,19.241,7.143,26.637,14.371
		c4.064,3.982,9.944,5.361,15.307,3.592c14.709-4.28,29.87-6.746,45.156-7.341c13.757,0.352,27.401,2.611,40.563,6.716
		c5.224,1.976,11.087,0.898,15.308-2.813c8.918-7.498,19.384-12.837,30.614-15.62c2.296,9.808,2.296,20.029,0,29.835
		c-1.22,5.727,0.646,11.68,4.898,15.621c8.984,12.854,12.867,28.704,10.868,44.361c1.451,36.978-26.748,68.158-62.986,69.641
		c-1.505,0.062-3.014,0.068-4.521,0.025c-6.406-0.022-12.145,4.03-14.389,10.153c-2.276,6.128-0.564,13.048,4.286,17.339
		c9.031,7.966,7.654,62.48,7.194,83.724c-0.121,4.917,2.033,9.606,5.817,12.652c2.712,2.149,6.056,3.305,9.491,3.28
		c1.27,0.153,2.554,0.153,3.827,0c106.525-27.582,170.968-138.063,143.938-246.766C471.426,10.467,390.897-52.788,299.094-51.834z"
		/>
</g>
</svg>
