<?xml version="1.0" encoding="utf-8"?>
<!-- Generator: Adobe Illustrator 16.0.0, SVG Export Plug-In . SVG Version: 6.00 Build 0)  -->
<!DOCTYPE svg PUBLIC "-//W3C//DTD SVG 1.1//EN" "http://www.w3.org/Graphics/SVG/1.1/DTD/svg11.dtd">
<svg version="1.1" id="Layer_1" xmlns="http://www.w3.org/2000/svg" xmlns:xlink="http://www.w3.org/1999/xlink" x="0px" y="0px"
	 width="411px" height="411px" viewBox="238.5 159.5 411 411" enable-background="new 238.5 159.5 411 411" xml:space="preserve">
<g>
	<path stroke="#000000" stroke-width="11" stroke-miterlimit="10" d="M444,165c-110.471,0-200,89.53-200,200
		c0,110.471,89.529,200,200,200s200-89.529,200-200C644,254.53,554.471,165,444,165z M568.84,489.77
		c-16.25,16.25-35.07,28.981-56.09,37.811c-21.721,9.221-44.84,13.83-68.75,13.83c-23.83,0-46.95-4.689-68.75-13.83
		c-21.01-8.91-39.92-21.64-56.09-37.811c-16.25-16.25-28.99-35.079-37.82-56.1c-9.219-21.721-13.898-44.841-13.898-68.671
		c0-23.829,4.688-46.949,13.818-68.75c8.91-21.02,21.65-39.92,37.82-56.09c16.33-16.25,35.16-28.99,56.17-37.899
		c21.8-9.141,44.92-13.82,68.75-13.82s46.949,4.68,68.75,13.82c21.02,8.909,39.92,21.649,56.09,37.819
		c16.25,16.25,28.99,35.08,37.82,56.09c9.221,21.721,13.83,44.851,13.83,68.751c0,23.829-4.689,46.96-13.83,68.75
		C597.75,454.691,585.02,473.591,568.84,489.77z"/>
	<path stroke="#000000" stroke-width="11" stroke-miterlimit="10" d="M505.41,265H382.75c-21.33,0-38.67,17.34-38.67,38.671v40.859
		v81.88c0,21.32,17.34,38.67,38.67,38.67h122.66c21.33,0,38.67-17.35,38.67-38.67v-81.96v-40.859C544,282.34,526.66,265,505.41,265z
		 M516.5,288.05h4.449v4.37v29.53l-33.818,0.08l-0.08-33.91L516.5,288.05z M415.488,344.45c6.4-8.82,16.791-14.681,28.51-14.681
		c11.721,0,22.111,5.781,28.521,14.681c4.221,5.78,6.641,12.891,6.641,20.55c0,19.381-15.779,35.24-35.242,35.24
		c-19.449,0-35.07-15.859-35.07-35.24C408.839,357.341,411.339,350.23,415.488,344.45z M524.551,426.33
		c0,10.551-8.602,19.14-19.141,19.141H382.751c-10.55,0-19.14-8.59-19.14-19.141v-81.88h29.84c-2.571,6.33-4.061,13.28-4.061,20.55
		c0,30.16,24.529,54.69,54.689,54.69c30.15,0,54.689-24.53,54.689-54.69c0-7.26-1.49-14.22-4.07-20.55h29.852V426.33z"/>
</g>
</svg>
