<?xml version="1.0" encoding="utf-8"?>
<!-- Generator: Adobe Illustrator 16.0.0, SVG Export Plug-In . SVG Version: 6.00 Build 0)  -->
<!DOCTYPE svg PUBLIC "-//W3C//DTD SVG 1.1//EN" "http://www.w3.org/Graphics/SVG/1.1/DTD/svg11.dtd">
<svg version="1.1" id="Layer_1" xmlns="http://www.w3.org/2000/svg" xmlns:xlink="http://www.w3.org/1999/xlink" x="0px" y="0px"
	 width="411px" height="411px" viewBox="0 0 411 411" enable-background="new 0 0 411 411" xml:space="preserve">
<g>
	<path fill="#292929" stroke="#292929" stroke-width="11" stroke-miterlimit="10" d="M205,6C94.529,6,5,95.53,5,206
		c0,110.473,89.529,200,200,200s200-89.527,200-200C405,95.53,315.471,6,205,6z M329.84,330.77
		c-16.25,16.25-35.07,28.981-56.09,37.811c-21.721,9.223-44.84,13.83-68.75,13.83c-23.83,0-46.95-4.688-68.75-13.83
		c-21.01-8.908-39.92-21.64-56.09-37.811c-16.25-16.25-28.99-35.079-37.82-56.1c-9.219-21.723-13.898-44.843-13.898-68.673
		c0-23.827,4.688-46.947,13.818-68.75c8.91-21.02,21.65-39.92,37.82-56.09c16.33-16.25,35.16-28.99,56.17-37.899
		c21.8-9.141,44.92-13.818,68.75-13.818s46.949,4.68,68.75,13.819c21.02,8.908,39.92,21.648,56.09,37.818
		c16.25,16.25,28.99,35.08,37.82,56.09c9.221,21.723,13.83,44.853,13.83,68.753c0,23.828-4.689,46.96-13.83,68.75
		C358.75,295.691,346.02,314.593,329.84,330.77z"/>
	<path fill="#292929" stroke="#292929" stroke-width="11" stroke-miterlimit="10" d="M266.41,106H143.75
		c-21.33,0-38.67,17.34-38.67,38.673v40.857v81.88c0,21.32,17.34,38.67,38.67,38.67h122.66c21.33,0,38.67-17.35,38.67-38.67v-81.96
		v-40.857C305,123.34,287.66,106,266.41,106z M277.5,129.05h4.449v4.37v29.53l-33.818,0.08l-0.08-33.91L277.5,129.05z
		 M176.488,185.45c6.4-8.818,16.791-14.681,28.51-14.681c11.721,0,22.111,5.781,28.521,14.681c4.221,5.78,6.641,12.893,6.641,20.55
		c0,19.383-15.779,35.24-35.242,35.24c-19.449,0-35.07-15.857-35.07-35.24C169.839,198.343,172.339,191.23,176.488,185.45z
		 M285.551,267.33c0,10.553-8.602,19.142-19.141,19.143H143.751c-10.55,0-19.14-8.59-19.14-19.143v-81.88h29.84
		c-2.571,6.33-4.061,13.28-4.061,20.55c0,30.16,24.527,54.69,54.688,54.69c30.15,0,54.689-24.53,54.689-54.69
		c0-7.26-1.49-14.22-4.07-20.55h29.854V267.33L285.551,267.33z"/>
</g>
</svg>
