<?xml version="1.0" encoding="utf-8"?>
<!-- Generator: Adobe Illustrator 16.0.0, SVG Export Plug-In . SVG Version: 6.00 Build 0)  -->
<!DOCTYPE svg PUBLIC "-//W3C//DTD SVG 1.1//EN" "http://www.w3.org/Graphics/SVG/1.1/DTD/svg11.dtd">
<svg version="1.1" id="Layer_1" xmlns="http://www.w3.org/2000/svg" xmlns:xlink="http://www.w3.org/1999/xlink" x="0px" y="0px"
	 width="411px" height="411px" viewBox="0 0 411 411" enable-background="new 0 0 411 411" xml:space="preserve">
<g>
	<path fill="#deb887" stroke="#deb887" stroke-width="11" stroke-miterlimit="10" d="M205.5,5.5c-110.471,0-200,89.53-200,200
		c0,110.472,89.529,200,200,200s200-89.528,200-200C405.5,95.03,315.971,5.5,205.5,5.5z M330.34,330.27
		c-16.25,16.25-35.07,28.981-56.09,37.811c-21.721,9.222-44.84,13.83-68.75,13.83c-23.83,0-46.95-4.688-68.75-13.83
		c-21.01-8.909-39.92-21.64-56.09-37.811c-16.25-16.25-28.99-35.079-37.82-56.1c-9.219-21.722-13.898-44.842-13.898-68.672
		c0-23.828,4.688-46.948,13.818-68.75c8.91-21.02,21.65-39.92,37.82-56.09c16.33-16.25,35.16-28.99,56.17-37.899
		c21.8-9.141,44.92-13.819,68.75-13.819s46.949,4.68,68.75,13.82c21.02,8.908,39.92,21.648,56.09,37.818
		c16.25,16.25,28.99,35.08,37.82,56.09c9.221,21.722,13.83,44.852,13.83,68.752c0,23.829-4.689,46.96-13.83,68.75
		C359.25,295.191,346.52,314.092,330.34,330.27z"/>
	<path fill="#deb887" stroke="#deb887" stroke-width="11" stroke-miterlimit="10" d="M266.91,105.5H144.25
		c-21.33,0-38.67,17.34-38.67,38.672v40.858v81.88c0,21.32,17.34,38.67,38.67,38.67h122.66c21.33,0,38.67-17.35,38.67-38.67v-81.96
		v-40.858C305.5,122.84,288.16,105.5,266.91,105.5z M278,128.55h4.449v4.37v29.53l-33.818,0.08l-0.08-33.91L278,128.55z
		 M176.988,184.95c6.4-8.819,16.791-14.681,28.51-14.681c11.721,0,22.111,5.781,28.521,14.681c4.221,5.78,6.641,12.892,6.641,20.55
		c0,19.382-15.779,35.24-35.242,35.24c-19.449,0-35.07-15.858-35.07-35.24C170.339,197.842,172.839,190.73,176.988,184.95z
		 M286.051,266.83c0,10.552-8.602,19.141-19.141,19.142H144.251c-10.55,0-19.14-8.59-19.14-19.142v-81.88h29.84
		c-2.571,6.33-4.061,13.28-4.061,20.55c0,30.16,24.528,54.69,54.688,54.69c30.15,0,54.689-24.53,54.689-54.69
		c0-7.26-1.49-14.22-4.07-20.55h29.854V266.83L286.051,266.83z"/>
</g>
</svg>
