<?xml version="1.0" encoding="utf-8"?>
<!-- Generator: Adobe Illustrator 16.0.0, SVG Export Plug-In . SVG Version: 6.00 Build 0)  -->
<!DOCTYPE svg PUBLIC "-//W3C//DTD SVG 1.1//EN" "http://www.w3.org/Graphics/SVG/1.1/DTD/svg11.dtd">
<svg version="1.1" id="Layer_1" xmlns="http://www.w3.org/2000/svg" xmlns:xlink="http://www.w3.org/1999/xlink" x="0px" y="0px"
	 width="411px" height="411px" viewBox="238.5 159.5 411 411" enable-background="new 238.5 159.5 411 411" xml:space="preserve">
<g>
	<g id="XMLID_1_">
		<path stroke="#000000" stroke-width="11" stroke-miterlimit="10" d="M444,165c110.47,0,200,89.53,200,200s-89.53,200-200,200
			s-200-89.53-200-200S333.53,165,444,165z M620.49,364.92c0-23.9-4.61-47.03-13.83-68.75c-8.83-21.01-21.57-39.84-37.82-56.09
			c-16.17-16.17-35.07-28.91-56.09-37.82c-21.8-9.14-44.92-13.82-68.75-13.82s-46.95,4.68-68.75,13.82
			c-21.01,8.91-39.84,21.65-56.17,37.9c-16.17,16.17-28.91,35.07-37.82,56.09c-9.13,21.8-13.819,44.92-13.819,68.75
			s4.68,46.95,13.899,68.67c8.83,21.021,21.57,39.85,37.82,56.1c16.17,16.171,35.08,28.9,56.09,37.811
			c21.8,9.14,44.92,13.83,68.75,13.83c23.91,0,47.03-4.61,68.75-13.83c21.02-8.83,39.84-21.561,56.09-37.811
			c16.18-16.18,28.91-35.079,37.82-56.1C615.8,411.88,620.49,388.75,620.49,364.92z"/>
		<path stroke="#000000" stroke-width="11" stroke-miterlimit="10" d="M544.08,344.45v81.96c0,21.32-17.34,38.67-38.67,38.67H382.75
			c-21.33,0-38.67-17.35-38.67-38.67v-81.88v-40.86c0-21.33,17.34-38.67,38.67-38.67h122.66c21.25,0,38.59,17.34,38.67,38.59V344.45
			z M524.55,426.33v-81.88H494.7c2.58,6.33,4.069,13.29,4.069,20.55c0,30.16-24.539,54.69-54.689,54.69
			c-30.16,0-54.69-24.53-54.69-54.69c0-7.27,1.49-14.22,4.061-20.55h-29.84v81.88c0,10.55,8.59,19.14,19.14,19.14h122.66
			C515.95,445.469,524.55,436.88,524.55,426.33z M520.95,321.95v-29.53v-4.37h-4.45l-29.45,0.07l0.08,33.91L520.95,321.95z
			 M479.16,365c0-7.66-2.42-14.77-6.641-20.55c-6.409-8.9-16.8-14.681-28.52-14.681s-22.11,5.86-28.51,14.681
			c-4.15,5.78-6.65,12.89-6.641,20.55c0,19.38,15.62,35.24,35.07,35.24C463.38,400.24,479.16,384.38,479.16,365z"/>
	</g>
</g>
</svg>
