<?xml version="1.0" encoding="utf-8"?>
<!-- Generator: Adobe Illustrator 16.0.0, SVG Export Plug-In . SVG Version: 6.00 Build 0)  -->
<!DOCTYPE svg PUBLIC "-//W3C//DTD SVG 1.1//EN" "http://www.w3.org/Graphics/SVG/1.1/DTD/svg11.dtd">
<svg version="1.1" id="Layer_1" xmlns="http://www.w3.org/2000/svg" xmlns:xlink="http://www.w3.org/1999/xlink" x="0px" y="0px"
	 width="140px" height="100px" viewBox="-58 -998 140 100" enable-background="new -58 -998 140 100" xml:space="preserve">
<path d="M-44-898c-3.849,0-7.147-1.224-9.891-3.668C-56.636-904.113-58-907.06-58-910.5v-75c0-3.439,1.371-6.381,4.109-8.832
	C-51.154-996.782-47.849-998-44-998H68c3.849,0,7.15,1.224,9.885,3.668C80.633-991.881,82-988.939,82-985.5v75
	c0,3.44-1.367,6.381-4.115,8.832C75.15-899.224,71.849-898,68-898H-44z M12-941.75L-44-973v62.5H68V-973L12-941.75z M12-954.25
	l56-31.25H-44L12-954.25z"/>
</svg>
